<svg xmlns="http://www.w3.org/2000/svg" fill="none" viewBox="0 0 43.788000000000004 42.786885245901644" style="max-height: 500px" width="43.788000000000004" height="42.786885245901644">
  <g clip-path="url(#clip0_12992_3409)">
    <path fill="white" d="M64.621 10.6311L60.3148 18.2686L59.7961 19.3499L59.2773 18.2936L54.8648 10.6311H51.2461L58.1336 22.2686V29.3561H61.3836V22.2374L68.1647 10.6249H64.621V10.6311ZM77.446 16.2749C76.3522 15.6499 75.1272 15.3374 73.7835 15.3374C72.4397 15.3374 71.2022 15.6499 70.096 16.2749C68.996 16.8999 68.1335 17.7561 67.5085 18.8499C66.8835 19.9436 66.571 21.1624 66.571 22.5061C66.571 23.8499 66.8835 25.0749 67.5147 26.1624C68.146 27.2499 69.0085 28.1124 70.1022 28.7374C71.196 29.3624 72.421 29.6749 73.7647 29.6749C75.1085 29.6749 76.346 29.3624 77.4397 28.7374C78.5335 28.1124 79.4022 27.2561 80.0272 26.1624C80.6522 25.0686 80.971 23.8499 80.971 22.5061C80.971 21.1624 80.6585 19.9374 80.0272 18.8499C79.396 17.7561 78.5335 16.8999 77.4397 16.2749H77.446ZM77.2022 24.7686C76.8772 25.4311 76.4147 25.9436 75.821 26.3061C75.221 26.6686 74.5397 26.8561 73.7772 26.8561C73.0147 26.8561 72.3272 26.6749 71.7397 26.3061C71.146 25.9436 70.6897 25.4249 70.3647 24.7686C70.0397 24.1124 69.8772 23.3561 69.8772 22.5061C69.8772 21.6561 70.0397 20.8936 70.3647 20.2311C70.6897 19.5686 71.1522 19.0561 71.7397 18.6936C72.3335 18.3311 73.0147 18.1436 73.7772 18.1436C74.5397 18.1436 75.221 18.3311 75.8147 18.6999C76.4085 19.0686 76.871 19.5811 77.196 20.2374C77.5272 20.8936 77.6897 21.6499 77.6897 22.5061C77.6897 23.3624 77.5272 24.1061 77.2022 24.7686ZM92.221 23.5936C92.221 24.2374 92.0897 24.8061 91.8272 25.3124C91.5647 25.8186 91.1897 26.2061 90.7085 26.4874C90.2272 26.7686 89.671 26.9061 89.0522 26.9061C88.4647 26.9061 87.9647 26.7811 87.546 26.5374C87.1272 26.2936 86.8147 25.9374 86.5897 25.4749C86.3647 25.0124 86.2522 24.4499 86.2522 23.7874V15.6561H83.1085V24.2686C83.1085 25.3936 83.3147 26.3624 83.721 27.1686C84.1335 27.9811 84.7085 28.5999 85.446 29.0249C86.1835 29.4499 87.046 29.6686 88.0272 29.6686C89.0772 29.6686 89.996 29.4249 90.7772 28.9311C91.4085 28.5374 91.9147 27.9936 92.3085 27.3311V29.3499H95.371V15.6499H92.2147V23.5811L92.221 23.5936ZM109.921 10.6311H95.021V13.6436H100.827V29.3624H104.146V13.6436H109.927V10.6311H109.921ZM113.977 16.3249C113.458 16.6811 113.021 17.1561 112.665 17.7374V15.6624H109.533V29.3624H112.69V21.9686C112.69 21.3061 112.827 20.7374 113.108 20.2561C113.39 19.7749 113.79 19.4061 114.315 19.1436C114.833 18.8874 115.452 18.7561 116.152 18.7561H117.033V15.5749H116.527C115.552 15.5749 114.702 15.8249 113.971 16.3311L113.977 16.3249ZM128.927 17.7311C128.483 17.0499 127.915 16.4999 127.221 16.0874C126.371 15.5874 125.377 15.3374 124.246 15.3374C123.021 15.3374 121.933 15.6436 120.977 16.2561C120.021 16.8686 119.265 17.7186 118.721 18.8124C118.177 19.9061 117.902 21.1374 117.902 22.5124C117.902 23.8874 118.177 25.1186 118.721 26.2124C119.265 27.3061 120.021 28.1561 120.983 28.7686C121.946 29.3811 123.033 29.6874 124.246 29.6874C125.377 29.6874 126.371 29.4374 127.221 28.9374C127.915 28.5311 128.483 27.9749 128.927 27.2936V29.3624H132.033V15.6624H128.927V17.7311ZM128.415 24.7749C128.083 25.4311 127.627 25.9436 127.033 26.3124C126.446 26.6811 125.765 26.8686 125.002 26.8686C124.24 26.8686 123.583 26.6874 122.996 26.3186C122.408 25.9499 121.952 25.4374 121.627 24.7811C121.302 24.1186 121.14 23.3624 121.14 22.5061C121.14 21.6499 121.302 20.8936 121.627 20.2374C121.952 19.5811 122.408 19.0686 122.996 18.6999C123.583 18.3311 124.252 18.1436 125.002 18.1436C125.752 18.1436 126.446 18.3311 127.033 18.6999C127.621 19.0686 128.083 19.5811 128.415 20.2374C128.746 20.8936 128.908 21.6499 128.908 22.5061C128.908 23.3624 128.746 24.1186 128.415 24.7749ZM139.571 18.6999C140.152 18.3249 140.815 18.1374 141.546 18.1374C142.046 18.1374 142.515 18.2311 142.952 18.4186C143.39 18.6061 143.771 18.8686 144.096 19.1999C144.421 19.5374 144.677 19.9311 144.865 20.3999H148.221C147.977 19.3999 147.546 18.5186 146.915 17.7561C146.283 16.9936 145.508 16.3999 144.583 15.9749C143.658 15.5499 142.64 15.3374 141.533 15.3374C140.196 15.3374 138.983 15.6499 137.902 16.2749C136.821 16.8999 135.965 17.7561 135.346 18.8499C134.727 19.9436 134.415 21.1624 134.415 22.5061C134.415 23.8499 134.727 25.0749 135.346 26.1624C135.965 27.2561 136.815 28.1124 137.902 28.7374C138.983 29.3624 140.196 29.6749 141.533 29.6749C142.64 29.6749 143.658 29.4624 144.583 29.0374C145.508 28.6124 146.29 28.0186 146.915 27.2561C147.54 26.4936 147.977 25.6124 148.221 24.6124H144.865C144.677 25.0749 144.421 25.4749 144.096 25.8124C143.771 26.1499 143.39 26.4061 142.952 26.5936C142.515 26.7811 142.046 26.8749 141.546 26.8749C140.815 26.8749 140.158 26.6874 139.571 26.3061C138.983 25.9249 138.527 25.4061 138.202 24.7436C137.871 24.0811 137.708 23.3311 137.708 22.5061C137.708 21.6811 137.871 20.9186 138.202 20.2499C138.533 19.5874 138.99 19.0686 139.571 18.6936V18.6999ZM157.04 22.0561L162.59 15.6624H158.927L153.577 21.7624V10.6311H150.421V29.3561H153.577V22.5624L158.996 29.3561H162.833L157.04 22.0499V22.0561Z"/>
    <path fill="url(#paint0_linear_12992_3409)" d="M0.816462 32.0278C0.755912 31.9832 0.735994 31.9016 0.768806 31.834L5.54107 22.0055L0.0363835 15.4316C-0.0190853 15.3656 -0.0101009 15.2668 0.0563054 15.2118L16.1117 1.83243C18.9684 -0.548815 23.1044 -0.616002 26.0391 1.66955C28.9727 3.95509 29.9102 7.97463 28.2872 11.3172L26.5376 14.9215C27.22 14.6926 27.8954 14.4844 28.5633 14.2973L36.4844 12.0219C36.5707 11.9969 36.6606 12.05 36.6801 12.1379L39.9961 26.8785C40.0164 26.9696 39.9548 27.0586 39.8618 27.0703C38.8106 27.2028 33.0758 28.0266 25.936 31.0262C17.8466 34.4238 12.5082 39.2528 11.752 39.959C11.6961 40.0113 11.6141 40.0133 11.5528 39.968L0.816462 32.0278Z"/>
    <path fill="black" d="M32.5 7.5H7.5V32.5H32.5V7.5Z"/>
    <path fill="white" d="M13.4164 16.4828L9.98633 10.6211H11.9559L14.0797 14.366L14.3278 14.902L14.5758 14.3594L16.6457 10.6211H18.5816L15.2051 16.4695V20H13.4164V16.4828Z"/>
    <path fill="white" d="M20.625 27.5H10.625V29.375H20.625V27.5Z"/>
    <path fill="white" d="M26.4531 10.6211H18.9301L18.9297 12.2692H21.7836V20H23.6125V12.2692H26.4531V10.6211Z"/>
  </g>
  <defs>
    <linearGradient gradientUnits="userSpaceOnUse" y2="20" x2="40.0332" y1="20" x1="-0.0640069" id="paint0_linear_12992_3409">
      <stop stop-color="#FB43FF"/>
      <stop stop-color="#FB406D" offset="0.97"/>
    </linearGradient>
    <clipPath id="clip0_12992_3409">
      <rect fill="white" height="40" width="163.125"/>
    </clipPath>
  </defs>
</svg>